<svg xmlns="http://www.w3.org/2000/svg" xmlns:xlink="http://www.w3.org/1999/xlink" viewBox="0 0 351.05 138.56">
  <defs>
    <style>
      .a {
        fill: url(#a);
      }

      .b {
        fill: #c5c6c8;
      }

      .c {
        fill: #231f20;
      }

      .d {
        fill: url(#b);
      }

      .e {
        fill: url(#c);
      }

      .f {
        fill: url(#d);
      }

      .g {
        fill: url(#e);
      }

      .h {
        fill: url(#f);
      }

      .i {
        fill: url(#g);
      }

      .j {
        fill: url(#h);
      }

      .k {
        fill: url(#i);
      }

      .l {
        fill: url(#j);
      }

      .m {
        fill: url(#k);
      }

      .n {
        fill: url(#l);
      }

      .o {
        fill: url(#m);
      }

      .p {
        fill: url(#n);
      }

      .q {
        fill: url(#o);
      }

      .r {
        fill: url(#p);
      }

      .s {
        mask: url(#q);
      }

      .t {
        fill: #fff;
      }

      .u {
        fill: url(#r);
      }
    </style>
    <linearGradient id="a" x1="83.47" y1="-27.18" x2="83.47" y2="-10.64" gradientTransform="matrix(0.98, -0.19, 0.19, 0.98, 11.87, 46.43)" gradientUnits="userSpaceOnUse">
      <stop offset="0" stop-color="#fff"/>
      <stop offset="1" stop-color="#231f20"/>
    </linearGradient>
    <linearGradient id="b" x1="233.83" y1="4.82" x2="233.83" y2="64.41" gradientUnits="userSpaceOnUse">
      <stop offset="0" stop-color="#fdb913"/>
      <stop offset="1" stop-color="#b5121b"/>
    </linearGradient>
    <linearGradient id="c" x1="8.51" y1="96.84" x2="26" y2="65.99" gradientTransform="matrix(0.98, -0.19, 0.19, 0.98, 11.87, 46.43)" gradientUnits="userSpaceOnUse">
      <stop offset="0" stop-color="#8b8d90"/>
      <stop offset="1" stop-color="#231f20"/>
    </linearGradient>
    <linearGradient id="d" x1="17.58" y1="72.38" x2="59.93" y2="9.53" xlink:href="#c"/>
    <linearGradient id="e" x1="22.09" y1="86.36" x2="33.93" y2="51.69" gradientTransform="matrix(0.98, -0.19, 0.19, 0.98, 11.87, 46.43)" gradientUnits="userSpaceOnUse">
      <stop offset="0" stop-color="#fff"/>
      <stop offset="1" stop-color="#77787b"/>
    </linearGradient>
    <linearGradient id="f" x1="40.94" y1="77.28" x2="36.77" y2="48.52" gradientTransform="matrix(0.98, -0.19, 0.19, 0.98, 11.87, 46.43)" gradientUnits="userSpaceOnUse">
      <stop offset="0" stop-color="#fff"/>
      <stop offset="1" stop-color="#fdb913"/>
    </linearGradient>
    <linearGradient id="g" x1="35.2" y1="73.43" x2="37.2" y2="20.97" gradientTransform="matrix(0.98, -0.19, 0.19, 0.98, 11.87, 46.43)" gradientUnits="userSpaceOnUse">
      <stop offset="0.38" stop-color="#fdb913"/>
      <stop offset="0.79" stop-color="#b5121b"/>
    </linearGradient>
    <linearGradient id="h" x1="24.28" y1="17.76" x2="34.01" y2="55.57" xlink:href="#f"/>
    <linearGradient id="i" x1="32.52" y1="71.87" x2="35.42" y2="55.35" xlink:href="#g"/>
    <linearGradient id="j" x1="34.41" y1="59.97" x2="38.94" y2="39.24" xlink:href="#f"/>
    <linearGradient id="k" x1="36.29" y1="28" x2="38.54" y2="44.72" xlink:href="#f"/>
    <linearGradient id="l" x1="39.12" y1="52.77" x2="37.32" y2="42.08" xlink:href="#c"/>
    <linearGradient id="m" x1="74.35" y1="35.34" x2="56.79" y2="18.66" xlink:href="#c"/>
    <linearGradient id="n" x1="56.23" y1="17.13" x2="58.76" y2="19.49" xlink:href="#e"/>
    <linearGradient id="o" x1="72.75" y1="20.54" x2="72.53" y2="7.12" xlink:href="#c"/>
    <radialGradient id="p" cx="88.89" cy="-17.72" r="35.15" gradientTransform="matrix(0.98, -0.19, 0.19, 0.98, 11.87, 46.43)" gradientUnits="userSpaceOnUse">
      <stop offset="0.01" stop-color="#fff"/>
      <stop offset="0.38" stop-color="#fdb913"/>
      <stop offset="0.7" stop-color="#b5121b"/>
      <stop offset="1" stop-color="#231f20"/>
    </radialGradient>
    <mask id="q" x="74.02" y="1.01" width="33.03" height="24.7" maskUnits="userSpaceOnUse">
      <path class="a" d="M106.9,10.24c1.25,6.6-5.05,13.34-14.08,15.07s-17.38-2.23-18.64-8.83,5-13.35,14.08-15.07S105.64,3.64,106.9,10.24Z"/>
    </mask>
    <linearGradient id="r" x1="57.4" y1="10.13" x2="58.53" y2="11.63" gradientTransform="matrix(1, -0.03, 0.03, 1, 17.68, 31.03)" xlink:href="#e"/>
  </defs>
  <title>Asset 1</title>
  <g>
    <rect class="b" x="116.61" y="71.23" width="234.44" height="43.13"/>
    <g>
      <g>
        <path class="c" d="M342,78.48h-8.54V77.37H342Z"/>
        <path class="c" d="M333.49,84.21H342v1.21l-4.33,2.72a21.11,21.11,0,0,1-2.77,1.52v0c1.14-.1,2.18-.12,3.5-.12H342v1h-8.54V89.5l4.33-2.71a25.48,25.48,0,0,1,2.85-1.58v0c-1.08.06-2.11.07-3.52.07h-3.65Z"/>
        <path class="c" d="M333.75,102.3a5.54,5.54,0,0,1-.4-2.26,4,4,0,0,1,4.33-4.21,4.24,4.24,0,0,1,4.48,4.47,4.47,4.47,0,0,1-.38,2l-.89-.28a3.93,3.93,0,0,0,.35-1.71A3.17,3.17,0,0,0,337.72,97a3.1,3.1,0,0,0-3.44,3.27,4.31,4.31,0,0,0,.36,1.81Z"/>
        <path class="c" d="M333.35,107.92a.74.74,0,0,1,.8-.73.75.75,0,0,1,.79.76.73.73,0,0,1-.79.74.75.75,0,0,1-.8-.76Z"/>
      </g>
      <g>
        <path class="c" d="M143,85.91l.28,2.06a27.51,27.51,0,0,0-4.37-.24h-9.58v8.46h8a31.45,31.45,0,0,0,4.58-.25v2.31a31.45,31.45,0,0,0-4.58-.25h-8v6.78a13.28,13.28,0,0,0,.32,3.5h-4.2a13.28,13.28,0,0,0,.32-3.5V89.4a13.24,13.24,0,0,0-.32-3.49Z"/>
        <path class="c" d="M166.7,85.91l.17,2.06a27.4,27.4,0,0,0-4.37-.24h-9.12v8.46h8.28a31.45,31.45,0,0,0,4.58-.25v2.31a31.45,31.45,0,0,0-4.58-.25h-8.28v8.46h9.12a27.4,27.4,0,0,0,4.37-.24l-.17,2.06H149.5a13.28,13.28,0,0,0,.32-3.5V89.4a13.24,13.24,0,0,0-.32-3.49Z"/>
        <path class="c" d="M192.49,108.28a11.28,11.28,0,0,0-1.23-3.64l-1.53-3.21h-12L176,105.2a6.81,6.81,0,0,0-1,3.08H172a11.36,11.36,0,0,0,1.57-2.41l8.92-18.56a4.88,4.88,0,0,0-1.16-1.4h4.51l9,18.35a20.93,20.93,0,0,0,2.31,4ZM183.68,89l-5.1,10.63h10.31Z"/>
        <path class="c" d="M203.43,87.73a23.07,23.07,0,0,0-4.16.35l.35-2.17h18l.35,2.17a23.16,23.16,0,0,0-4.16-.35h-3.42v17a13.79,13.79,0,0,0,.31,3.5h-4.19a13.79,13.79,0,0,0,.31-3.5v-17Z"/>
        <path class="c" d="M241.35,106.46c1.25,0,1.53-.35,1.53-1.82v-15a26.51,26.51,0,0,0-.31-3.77h2.51a21.74,21.74,0,0,0-.38,4.75V104c0,3.32-.94,4.3-3.84,4.3H229.67c-3.42,0-4.58-1-4.58-4.3V89.4a13.75,13.75,0,0,0-.31-3.49H229a13.75,13.75,0,0,0-.31,3.49v15.24c0,1.47.28,1.82,1.36,1.82Z"/>
        <path class="c" d="M257.21,98.07v6.71a13.28,13.28,0,0,0,.32,3.5h-4.2a13.28,13.28,0,0,0,.32-3.5V89.4a13.24,13.24,0,0,0-.32-3.49h15.49c3.63,0,4.92.84,4.92,4.33v3.53c0,3.5-1.29,4.34-4.16,4.34,1.54,3.49,3.53,8,5.11,10.17h-4.13l-4.75-10.21Zm0-1.81h11.46c1.23,0,1.51-.35,1.51-1.82V89.55c0-1.47-.28-1.82-1.51-1.82H257.21Z"/>
        <path class="c" d="M299.08,85.91l.17,2.06a27.4,27.4,0,0,0-4.37-.24h-9.12v8.46h8.29a31.27,31.27,0,0,0,4.57-.25v2.31a31.27,31.27,0,0,0-4.57-.25h-8.29v8.46h9.12a27.4,27.4,0,0,0,4.37-.24l-.17,2.06h-17.2a13.28,13.28,0,0,0,.32-3.5V89.4a13.24,13.24,0,0,0-.32-3.49Z"/>
        <path class="c" d="M324.87,85.91l.28,2.06a27.4,27.4,0,0,0-4.37-.24h-9.29c-1.23,0-1.51.35-1.51,1.82v3.74c0,1.46.28,1.81,1.51,1.81h9.22c3.64,0,4.93.84,4.93,4.34v4.5c0,3.5-1.29,4.34-4.93,4.34H306.87l-.28-2.06a27.4,27.4,0,0,0,4.37.24h9.61c1.23,0,1.51-.35,1.51-1.82v-4.37c0-1.46-.28-1.81-1.51-1.81h-9.22c-3.64,0-4.93-.84-4.93-4.33V90.24c0-3.49,1.29-4.33,4.93-4.33Z"/>
      </g>
    </g>
    <path class="d" d="M188.29,57c0-4.87-2.12-7-6.61-7H158.39l-.62,4.48a16.48,16.48,0,0,1,4.71-.56h14.67c.89,0,1.4.33,1.4,1.23v1.68c0,.89-.51,1.23-1.4,1.23H163.43c-4.6,0-6.61,1.9-6.61,9.13s2,9.13,6.61,9.13h12.1c1.95,0,2.91-.62,3.75-2.75h.11l.45,2.75h9a22.23,22.23,0,0,1-.56-5.94Zm-9.74,13.22c0,1.4-.39,1.9-1.68,1.9h-8.63c-1.28,0-1.68-.5-1.68-1.9V64.1c0-1.4.4-1.91,1.68-1.91h10.31Zm-32-14.68c4.26-.62,5.55-2.81,5.55-6V42.3c0-4.7-2.64-6.94-7.12-6.94H116.61a14.49,14.49,0,0,1,.67,4.81V66.38a14.51,14.51,0,0,1-.67,4.82h11.87a14.51,14.51,0,0,1-.67-4.82v-11h7.84l6.16,15.79h12a10.17,10.17,0,0,1-2.58-3.81Zm-4.65-7.17c0,1.79-.5,2.4-1.85,2.4H127.81V40h12.26c1.35,0,1.85.62,1.85,2.41Zm82,1c0-4.87-2.13-7.06-6.61-7.06h-12c-1.62,0-2.35.62-3,2.69h-.11L202,42.32h-9.75a21.81,21.81,0,0,1,.56,5.94V62.71a21.81,21.81,0,0,1-.56,5.94h10.87a21.81,21.81,0,0,1-.56-5.94V48.37c0-1.4.39-1.9,1.68-1.9h8.29c1.29,0,1.68.5,1.68,1.9V62.71a22.23,22.23,0,0,1-.56,5.94h10.86a22.23,22.23,0,0,1-.56-5.94ZM340.18,71.2H351a22.18,22.18,0,0,1-.56-5.94V51.93c0-4.87-2.12-7-6.61-7H332.73c-1.58,0-2.32.59-3.13,2.54-.65-2.1-1.3-2.54-4-2.54H312.18a3,3,0,0,0-1.91.56,4.12,4.12,0,0,0-1.12,2.13H309l-.22-2.69h-9.75a21.72,21.72,0,0,1,.56,5.93V65.26a21.76,21.76,0,0,1-.56,5.94h10.86a22.18,22.18,0,0,1-.56-5.94V50.93c0-1.4.4-1.91,1.69-1.91h7.44c1.29,0,1.68.51,1.68,1.91V65.26a21.76,21.76,0,0,1-.56,5.94h10.87a21.76,21.76,0,0,1-.56-5.94V50.93c0-1.4.39-1.91,1.68-1.91h7.45c1.29,0,1.68.51,1.68,1.91V65.26A21.76,21.76,0,0,1,340.18,71.2ZM288.54,34.66H270.28c-4.48,0-6.6,2.19-6.6,7.06V53.93c0,4.87,2.12,7,6.6,7h18.26c4.48,0,6.61-2.18,6.61-7V41.72C295.15,36.85,293,34.66,288.54,34.66Zm-3.13,20.28c0,1.4-.39,1.9-1.68,1.9H275.1c-1.29,0-1.68-.5-1.68-1.9V40.71c0-1.4.39-1.9,1.68-1.9h8.63c1.29,0,1.68.5,1.68,1.9Zm-25.54-9.37H249.56a21.81,21.81,0,0,1,.56,5.94v6.27h-.22a5.31,5.31,0,0,0-1.29-2.13,2.48,2.48,0,0,0-1.85-.56H235c-4.48,0-6.61,2.19-6.61,7.06V74.36c0,4.87,2.13,7.06,6.61,7.06h12.21A3,3,0,0,0,250,79h.11l.56,2.47h9.75a21.81,21.81,0,0,1-.56-5.94Zm-9.75,29.8c0,1.4-.39,1.9-1.68,1.9h-8.62c-1.29,0-1.68-.5-1.68-1.9V61.14c0-1.4.39-1.9,1.68-1.9h8.62c1.29,0,1.68.5,1.68,1.9Z"/>
    <path class="e" d="M111,88.62a2.13,2.13,0,0,1-.07.27,5.44,5.44,0,0,1-.15.54l-.12.3c-.07.16-.14.33-.22.49s-.11.2-.17.3A3.68,3.68,0,0,1,110,91l-.2.3-.34.41-.24.27-.42.4a3.08,3.08,0,0,1-.27.24,8.57,8.57,0,0,1-.81.61L59,125.16a9,9,0,0,1-.79.46l-.3.15c-.18.08-.35.17-.53.24l-.37.14c-.16.06-.32.13-.49.18l-.4.11-.47.13a14,14,0,0,1-1.44.24l-.25,0a11.23,11.23,0,0,1-1.42,0l-.37,0-.57,0-.41-.06a5,5,0,0,1-.56-.09l-.41-.08-.56-.13-.39-.12c-.18,0-.36-.12-.54-.18s-.26-.09-.39-.15l-.52-.23-.36-.17c-.18-.09-.35-.19-.52-.29l-.32-.18c-.18-.12-.36-.24-.53-.37l-.26-.18a8.42,8.42,0,0,1-.72-.62L3.23,84.18A7.05,7.05,0,0,1,.86,78.56L0,90.25a7,7,0,0,0,2.36,5.62l41.9,39.78c.23.22.48.42.73.62a2.2,2.2,0,0,0,.25.17c.17.13.35.26.54.38l.31.18.53.29.35.17.53.23.38.14.55.19.38.11.57.14.4.08a5.43,5.43,0,0,0,.56.09l.42.06.57,0,.25,0h.11a13.66,13.66,0,0,0,1.43,0l.24,0a11.37,11.37,0,0,0,1.44-.23h0c.15,0,.3-.08.44-.12l.41-.11.49-.18.37-.14.53-.25.29-.14c.27-.14.54-.3.79-.46l48.69-32a8.5,8.5,0,0,0,.81-.6l.06,0,.19-.18a5.6,5.6,0,0,0,.43-.41l.24-.26c.12-.15.24-.28.35-.43a.94.94,0,0,1,.09-.12s.07-.11.11-.17.19-.3.28-.46l.16-.29a5.44,5.44,0,0,0,.22-.5,2.52,2.52,0,0,0,.12-.29,5.7,5.7,0,0,0,.16-.55c0-.08,0-.17.07-.26,0-.27.09-.54.12-.82l.84-11.68A5.66,5.66,0,0,1,111,88.62Z"/>
    <path class="f" d="M53,41.21a11.75,11.75,0,0,1,13.88,1.2l41.9,39.79c3.55,3.36,3.09,8.28-1,11L59,125.16A11.77,11.77,0,0,1,45.13,124L3.23,84.18c-3.55-3.37-3.08-8.3,1-11Z"/>
    <path class="g" d="M107.73,92.25,59,124.21A11.76,11.76,0,0,1,45.15,123L3.25,83.23a7.17,7.17,0,0,1-2.38-5A7,7,0,0,0,3.2,84.17L45.1,124A11.77,11.77,0,0,0,59,125.16l48.68-32a7,7,0,0,0,3.42-6A7.14,7.14,0,0,1,107.73,92.25Z"/>
    <path class="h" d="M53,48a9.77,9.77,0,0,1,11.53,1L99.35,82a5.59,5.59,0,0,1-.86,9.13L58.08,117.64a9.77,9.77,0,0,1-11.53-1l-34.78-33a5.59,5.59,0,0,1,.86-9.13Z"/>
    <path class="i" d="M99.36,81.94l-34.78-33a9.78,9.78,0,0,0-11.53-1L12.64,74.46A6.11,6.11,0,0,0,10,78a6.69,6.69,0,0,1,1.69-1.56L52.08,49.92a9.74,9.74,0,0,1,11.52,1l34.78,33a5.67,5.67,0,0,1,1.81,5.57A5.52,5.52,0,0,0,99.36,81.94Z"/>
    <path class="j" d="M62.72,51.52a9.14,9.14,0,0,0-10.78-.93L14.17,75.39a5.22,5.22,0,0,0-.81,8.53L27.75,97.59c4.84-5.21,13.43-10.89,28.64-13.41C69.76,82,77.3,75.79,81.56,69.42Z"/>
    <path class="k" d="M77.36,78.54c5.55,9.69.89,20.22-10.41,23.5s-25-1.93-30.52-11.63-.89-20.22,10.41-23.5S71.81,68.84,77.36,78.54Z"/>
    <path class="l" d="M75.06,77c4.73,8.21.64,17-9.13,19.65S44.4,94.81,39.66,86.6,39,69.59,48.8,67,70.33,68.82,75.06,77Z"/>
    <path class="m" d="M68.43,71.53c3.12,4.11-.23,8.88-7.47,10.67S45.31,82.09,42.19,78s.22-8.88,7.47-10.67S65.31,67.42,68.43,71.53Z"/>
    <path class="n" d="M62.53,80.38c1.52,2.64.21,5.47-2.94,6.32a7.81,7.81,0,0,1-8.44-3.24c-1.53-2.64-.21-5.47,2.93-6.32A7.82,7.82,0,0,1,62.53,80.38Z"/>
    <path class="o" d="M90.29,27.12c1.86,1,5,5.14,4,7l-33.25,48a3.81,3.81,0,0,1-5.17,1.54h0a3.81,3.81,0,0,1-1.53-5.17L82,27.58a3.81,3.81,0,0,1,5.17-1.53Z"/>
    <path class="p" d="M87.43,24.5c.67.36,1.17,3.05.16,4.9L57.92,79.31c-1.47,2.9-2.36,3.06-3,2.7h0c-.66-.36-.39-2.16.61-4L83.09,27.13c1-1.85,2.36-3.06,3-2.7Z"/>
    <path class="q" d="M94.88,37.06c2,5.22-1.15,10-7.1,10.65s-12.4-3-14.42-8.24,1.15-10,7.1-10.65S92.85,31.85,94.88,37.06Z"/>
    <path class="r" d="M115,18.6A22.89,22.89,0,1,1,88.24.41,22.89,22.89,0,0,1,115,18.6Z"/>
    <g class="s">
      <path class="t" d="M106.9,10.24a8.56,8.56,0,0,1,.15,1.59c.07,6.06-5.93,11.89-14.23,13.48-9,1.72-17.38-2.23-18.64-8.83A8.24,8.24,0,0,1,74,14.92C73.93,8.85,79.94,3,88.26,1.41,97.29-.31,105.64,3.64,106.9,10.24Z"/>
    </g>
    <path class="u" d="M73.61,36.53a5.5,5.5,0,0,0,1.86,5.15c2.57,2.45,3.57.61,2.77-.15S74.88,38.84,73.61,36.53Z"/>
  </g>
</svg>
